<?xml version="1.0" encoding="UTF-8"?>
<svg id="Layer_1" xmlns="http://www.w3.org/2000/svg" version="1.1" viewBox="0 0 936.28 149.08">
  <!-- Generator: Adobe Illustrator 30.4.0, SVG Export Plug-In . SVG Version: 2.1.4 Build 226)  -->
  <defs>
    <style>
      .st0 {
        fill: none;
        stroke: #350316;
        stroke-miterlimit: 10;
        stroke-width: 11px;
      }

      .st1 {
        fill: #350316;
      }
    </style>
  </defs>
  <path class="st1" d="M40.09,67.98v-20.49h.49c6.39,0,11.57,5.44,11.57,12.15v8.44"/>
  <path class="st1" d="M68.12,70.89l-3.23,1.17c3.31-13.46,12.42-25.78,32.32-25.78,21.52,0,33.06,15.49,33.06,40.54,0,1.13-.02,2.23-.05,3.31h0s.04,36.37.04,36.37c-9.32,0-12.23-5.78-13-10.78-.05-.04-.09-.07-.09-.07-3.69,6.73-14.2,12.87-24.03,13.23v-.02c-14.35.74-28.32-5.88-28.57-22.17-.11-15.08,11.7-21.72,25.78-23.47,4.34-1.27,23.06-.21,22.8-9.16-.48-16.95-16.16-16.54-16.16-16.54-4.79,0-6.76.93-11.68,2.79M94.32,118.3c13.83-.01,22.04-13.26,22.04-31.01,0-.42-.03-.84-.03-1.26-7.06,7.04-23.63,6.05-30.99,9.8-7.41,3.29-8.8,14.65-2.03,19.29,3.29,2.08,7.11,3.19,11,3.19h0Z"/>
  <path class="st1" d="M256.95,76.51v49.92h-13.44v-47.67c0-13.31-5.64-20.69-17.02-20.69-9.3,0-15.15,4.09-18.07,11.56.32,2.28.49,4.58.49,6.88v49.92h-13.44v-47.67c0-13.31-5.64-20.69-17.02-20.69-14.07,0-20.29,9.3-20.29,25.59v42.77h-13.5V47.5c.07,0,13.5.02,13.5,14.23v1.34c3.99-6.87,9.47-16.78,24.41-16.7,9.48.05,19.67,3.96,24.08,15.92,3.96-6.82,9.57-15.99,23.96-15.92,12.54.07,26.34,6.86,26.34,30.14Z"/>
  <path class="st1" d="M268.85,20.86c0-4.63,3.76-8.39,8.39-8.39s8.39,3.75,8.39,8.39-3.76,8.39-8.39,8.39-8.39-3.76-8.39-8.39ZM283.94,60.88v65.58h-13.39V47.48c7.4,0,13.39,6,13.39,13.39Z"/>
  <path class="st1" d="M363.39,102.89c-3.31,13.46-12.42,25.78-32.32,25.78-21.52,0-34.86-15.49-34.86-40.54,0-13.02,4.59-24.98,13.24-32.8h.01c6.6-5.85,15.07-9.14,23.89-9.27h0c14.35-.72,28.32,5.89,28.57,22.19.1,15.08-11.7,21.72-25.79,23.47-4.78,1.39-22.91.65-23.34,12,3.31,8.55,9.62,13.71,18.51,13.71,9.78,0,15.48-5.21,18.67-14.54h13.43ZM332.16,56.66c-13.83.01-22.04,13.26-22.04,31,0,.43.03.84.03,1.26,7.06-7.04,23.63-6.05,30.99-9.8,7.41-3.29,8.8-14.65,2.03-19.29-3.29-2.08-7.11-3.19-11-3.18Z"/>
  <path class="st1" d="M540.2,127.56c-22.05,0-38.18-18.24-38.18-40.66s16.13-40.66,38.18-40.66,38.18,18.24,38.18,40.66-16.13,40.66-38.18,40.66ZM540.2,56.93c-15.28,0-24.1,14.44-24.1,29.97s8.82,29.97,24.1,29.97,24.1-14.44,24.1-29.97-8.82-29.97-24.1-29.97h0Z"/>
  <path class="st1" d="M652.06,48.15v78.36c-3.29,0-6.44-1.31-8.76-3.65-2.31-2.34-3.6-5.5-3.57-8.79l.03-2.73s-6.64,17.3-24.2,17.3c-10.96,0-18.43-3.73-22.4-11.19-2.37-5-3.48-10.5-3.23-16.03v-53.26h13.46v52.03c-.13,3.37.51,6.72,1.85,9.8,2.28,4.68,6.53,7.03,12.76,7.03,8.93,0,15.01-4.1,18.24-12.29,1.98-5.81,2.88-11.94,2.64-18.07v-38.49h13.17Z"/>
  <path class="st1" d="M726.21,106.13c0,14.26-12.44,23.84-30.96,23.84-12.2,0-30.26-8.11-30.74-30.38l13.06.15c.4,9.54,7.2,19.34,19.48,19.34s16.7-6.19,16.7-11.97c0-6.24-3.26-10.19-21.12-14.47-18.22-4.4-26.34-11.58-26.34-23.28,0-14.05,11.06-22.78,28.85-22.78,6.58,0,15.75,2.75,21.42,8.89,3.93,4.26,5.9,9.96,5.45,15.74l-11.6.11c-1.11-6.69-4.03-14.01-15.51-14.01-.34,0-.68,0-1.03.02-13.25.47-15.24,7.24-15.24,11.23,0,6.99,6.14,9.7,19.92,13.13,23.39,5.97,27.67,12.91,27.67,24.42Z"/>
  <path class="st1" d="M774.56,115.53v12.18c-1.67.15-4.41.3-6.39.3-19.18,0-26.18-12.02-26.18-32.42v-36.6h-10.65v-11.06h10.65v-21.91c3.31,0,6.49,1.31,8.83,3.65,2.34,2.34,3.66,5.52,3.66,8.83v9.43h15.53v11.06h-15.53v36.14c0,15.07,4.12,20.4,17.66,20.4h2.44Z"/>
  <path class="st1" d="M815.78,127.56c-22.05,0-38.18-18.24-38.18-40.66s16.13-40.66,38.18-40.66,38.18,18.24,38.18,40.66-16.13,40.66-38.18,40.66ZM815.78,56.93c-15.28,0-24.1,14.44-24.1,29.97s8.82,29.97,24.1,29.97,24.1-14.44,24.1-29.97-8.82-29.97-24.1-29.97h0Z"/>
  <path class="st1" d="M930.39,76.51v49.92h-13.44v-47.67c0-13.31-5.64-20.69-17.02-20.69-14.07,0-20.29,9.3-20.29,25.59v42.77h-13.5V47.5c.07,0,13.5.02,13.5,14.23v1.34c3.99-6.87,9.48-16.78,24.41-16.7,12.54.07,26.34,6.86,26.34,30.14Z"/>
  <path class="st1" d="M38.13,20.86c0-4.63,3.76-8.39,8.39-8.39s8.39,3.76,8.39,8.39-3.76,8.39-8.39,8.39-8.39-3.76-8.39-8.39Z"/>
  <path class="st1" d="M413.35,77.13c5.25-3.64,12.37-8.58,18.3-12.73v-27.5c0-11.89.96-17.16,3.97-21.66,4.26-6.38,16.61-16.16,32.88-7.47,6.39,3.41,10.51,9.53,11.58,17.23,1.06,7.6-1.04,15.65-5.1,19.58-1.02.98-2.51,2.3-4.29,3.81,10.93,1.75,16.81,7.62,19.53,11.35,4.67,6.42,6.75,15.29,6.75,28.77v38.41h-11v-38.41c0-11.01-1.43-17.88-4.64-22.3-3.44-4.73-9.58-7.33-17.29-7.33-6.11,0-9.26,1.63-15.29,7.91-.06.06-6.08,6.74-6.08,15.73v44.22h-11v-48.92c-9.29,6.47-18.86,13.07-19.54,13.54l-4.98-7.22M455.66,15.34c-6.65,0-10.37,5.21-10.89,5.99-1.12,1.68-2.12,4.13-2.12,15.56v19.63c7.7-5.76,20.9-16.21,24.69-19.87.82-.79,2.57-4.97,1.85-10.15-.41-2.92-1.76-6.85-5.87-9.05-2.87-1.53-5.43-2.12-7.66-2.12Z"/>
  <path class="st1" d="M28.29,144.21c-4.05,0-8.57-1.05-13.45-3.69-8.29-4.49-11.17-10.87-12.13-15.44-1.67-7.98,1.27-16.37,4.71-20.79,3.55-4.56,13.87-12.29,25.04-20.48.99-.73,1.9-1.39,2.7-1.98,1.05-.78,2.8-2.02,5.01-3.59v-28.56l12,9.98v10.17c5.78-4.03,11.73-9.44,16.03-12.34,7.51-5.06,12.02-7.48,13.69-8.09l7.81,9.27c-.08.06-3.69,1.19-6.56,3.18-7.46,5.16-20.83,15.51-30.97,22.62v27.23c0,12.01-.98,17.34-4.05,21.94-2.98,4.47-10.04,10.56-19.81,10.56ZM40.16,93.05c-.2.15-.4.3-.61.45-6.44,4.72-19.85,14.55-22.67,18.17-1.17,1.5-3.4,6.34-2.43,10.95.64,3.07,2.64,5.47,6.1,7.34,11.13,6.02,16.95-2.04,17.57-2.98,1.07-1.61,2.04-3.99,2.04-15.28v-18.66Z"/>
  <path class="st0" d="M815.26,49.88s-3.52,15.33,2.64,25.55c5.96,9.87,13.57,11.98,22.55,12.86,8.94.88,17.44-3.17,21.49-5.46s10.92-7.75,10.92-7.75"/>
  <path class="st0" d="M539.16,51.07s-3.52,15.33,2.64,25.55c5.96,9.87,13.57,11.98,22.55,12.86,8.94.88,17.44-3.17,21.49-5.46s10.92-7.75,10.92-7.75"/>
  <path class="st1" d="M420.47,85.6l-12.56,8.78c-1.69-2.42-2.23-5.48-1.5-8.52.73-3.04,2.66-5.79,5.38-7.65l2.25-1.55"/>
</svg>