<svg width="433" height="208" viewBox="0 0 433 208" fill="none" xmlns="http://www.w3.org/2000/svg">
<rect x="0.5" y="0.5" width="432" height="207" rx="7.5" fill="white"/>
<rect x="0.5" y="0.5" width="432" height="207" rx="7.5" stroke="#D61A69"/>
<rect x="24" y="24" width="48" height="48" rx="4" fill="#F1F0F0"/>
<path d="M48 61.4674C55.3334 61.4674 61.3334 55.4674 61.3334 48.1341C61.3334 40.8008 55.3334 34.8008 48 34.8008C40.6667 34.8008 34.6667 40.8008 34.6667 48.1341C34.6667 55.4674 40.6667 61.4674 48 61.4674Z" stroke="#083430" stroke-width="2" stroke-linecap="round" stroke-linejoin="round"/>
<path d="M48 40.1328V48.1328L53.3333 50.7995" stroke="#083430" stroke-width="2" stroke-linecap="round" stroke-linejoin="round"/>
<path d="M97.808 40.736V43.04H91.824V45.536H96.56V47.824H91.824V52H89.232V40.736H97.808ZM99.2424 40.736H101.802V49.008C101.802 49.68 102.042 49.936 102.538 49.936C102.922 49.936 103.082 49.872 103.29 49.808L103.594 51.776C103.114 52 102.506 52.16 101.786 52.16C100.09 52.16 99.2424 51.296 99.2424 49.536V40.736ZM112.03 47.632C112.03 48.032 112.014 48.384 111.982 48.672H106.494C106.622 49.616 107.23 50.16 108.254 50.16C109.15 50.16 109.55 49.68 109.806 49.136L111.934 49.984C111.438 51.392 109.886 52.16 108.158 52.16C105.614 52.16 103.982 50.64 103.982 48.064C103.982 45.376 105.662 43.84 108.11 43.84C110.606 43.84 112.03 45.52 112.03 47.632ZM106.51 47.184H109.534C109.502 46.304 108.974 45.792 108.094 45.792C107.246 45.792 106.638 46.208 106.51 47.184ZM118.348 47.824L121.292 52H118.268L116.764 49.648L115.148 52H112.188L115.276 47.968L112.492 44H115.516L116.86 46.128L118.38 44H121.116L118.348 47.824ZM123.601 40.608C124.481 40.608 125.057 41.152 125.057 41.984C125.057 42.832 124.481 43.392 123.601 43.392C122.737 43.392 122.177 42.832 122.177 41.984C122.177 41.152 122.737 40.608 123.601 40.608ZM122.321 44H124.881V52H122.321V44ZM131.89 43.84C133.922 43.84 135.266 45.328 135.266 48.032C135.266 50.704 133.762 52.16 131.826 52.16C130.53 52.16 129.666 51.552 129.25 50.48L129.17 52H126.93V40.736H129.49V45.008C129.97 44.304 130.786 43.84 131.89 43.84ZM131.122 50.016C132.13 50.016 132.69 49.392 132.69 48C132.69 46.608 132.146 45.968 131.138 45.968C130.146 45.968 129.49 46.736 129.49 48.016C129.49 49.344 130.162 50.016 131.122 50.016ZM136.852 40.736H139.412V49.008C139.412 49.68 139.652 49.936 140.148 49.936C140.532 49.936 140.692 49.872 140.9 49.808L141.204 51.776C140.724 52 140.116 52.16 139.396 52.16C137.7 52.16 136.852 51.296 136.852 49.536V40.736ZM149.639 47.632C149.639 48.032 149.623 48.384 149.591 48.672H144.103C144.231 49.616 144.839 50.16 145.863 50.16C146.759 50.16 147.159 49.68 147.415 49.136L149.543 49.984C149.047 51.392 147.495 52.16 145.767 52.16C143.223 52.16 141.591 50.64 141.591 48.064C141.591 45.376 143.271 43.84 145.719 43.84C148.215 43.84 149.639 45.52 149.639 47.632ZM144.119 47.184H147.143C147.111 46.304 146.583 45.792 145.703 45.792C144.855 45.792 144.247 46.208 144.119 47.184ZM164.627 49.52L166.115 44H168.659L166.211 52H163.187L161.683 46.848L160.147 52H157.123L154.675 44H157.379L158.819 49.52L160.435 44H163.107L164.627 49.52ZM173.315 43.84C175.795 43.84 177.491 45.376 177.491 48C177.491 50.624 175.795 52.16 173.315 52.16C170.819 52.16 169.123 50.624 169.123 48C169.123 45.376 170.819 43.84 173.315 43.84ZM173.315 45.888C172.291 45.888 171.699 46.544 171.699 48C171.699 49.456 172.291 50.112 173.315 50.112C174.323 50.112 174.915 49.456 174.915 48C174.915 46.544 174.323 45.888 173.315 45.888ZM181.631 52H179.071V44H181.375L181.455 45.568C181.823 44.576 182.623 43.84 183.919 43.84C184.175 43.84 184.447 43.888 184.639 43.968L184.367 46.464C184.159 46.4 183.887 46.336 183.455 46.336C182.495 46.336 181.631 46.944 181.631 48.112V52ZM194.605 52H191.549L189.517 48.928L188.365 50.16V52H185.805V40.736H188.365V47.232L191.453 44H194.413L191.421 47.184L194.605 52ZM196.835 40.608C197.715 40.608 198.291 41.152 198.291 41.984C198.291 42.832 197.715 43.392 196.835 43.392C195.971 43.392 195.411 42.832 195.411 41.984C195.411 41.152 195.971 40.608 196.835 40.608ZM195.555 44H198.115V52H195.555V44ZM205.157 43.84C206.869 43.84 208.069 44.816 208.069 46.768V52H205.509V47.392C205.509 46.4 204.997 46.064 204.277 46.064C203.461 46.064 202.725 46.544 202.725 47.76V52H200.165V44H202.469L202.533 45.376C203.061 44.368 203.957 43.84 205.157 43.84ZM213.607 55.312C211.047 55.312 209.687 54.272 209.335 52.912L212.103 52.448C212.295 53.04 212.711 53.392 213.735 53.392C214.791 53.392 215.383 52.768 215.383 51.536V50.768C214.887 51.52 214.087 52 213.015 52C211.079 52 209.607 50.496 209.607 47.92C209.607 45.344 211.095 43.84 213.175 43.84C214.327 43.84 215.127 44.336 215.559 45.216L215.623 44H217.943V50.8C217.943 53.648 216.471 55.312 213.607 55.312ZM213.783 49.856C214.775 49.856 215.383 49.152 215.383 47.872C215.383 46.64 214.775 45.968 213.799 45.968C212.775 45.968 212.183 46.56 212.183 47.952C212.183 49.28 212.759 49.856 213.783 49.856ZM232.329 50.336C232.425 50.336 232.537 50.32 232.617 50.304L232.505 51.968C232.233 52.096 231.897 52.144 231.481 52.144C230.553 52.144 229.817 51.808 229.513 51.104C229.033 51.808 228.169 52.16 226.953 52.16C225.145 52.16 224.105 51.168 224.105 49.664C224.105 48.112 225.305 47.184 227.081 47.184H229.161V46.896C229.161 46.128 228.777 45.744 227.913 45.744C227.161 45.744 226.569 45.984 226.441 46.72L224.137 46.304C224.425 44.72 225.865 43.84 228.105 43.84C230.201 43.84 231.705 44.864 231.705 46.704V49.712C231.705 50.128 231.913 50.336 232.329 50.336ZM227.593 50.416C228.297 50.416 229.161 50.064 229.161 49.056V48.704H227.737C227.049 48.704 226.553 48.944 226.553 49.536C226.553 50.064 226.841 50.416 227.593 50.416ZM236.287 52H233.727V44H236.031L236.111 45.568C236.479 44.576 237.279 43.84 238.575 43.84C238.831 43.84 239.103 43.888 239.295 43.968L239.023 46.464C238.815 46.4 238.543 46.336 238.111 46.336C237.151 46.336 236.287 46.944 236.287 48.112V52ZM243.022 52H240.462V44H242.766L242.846 45.568C243.214 44.576 244.014 43.84 245.31 43.84C245.566 43.84 245.838 43.888 246.03 43.968L245.758 46.464C245.55 46.4 245.278 46.336 244.846 46.336C243.886 46.336 243.022 46.944 243.022 48.112V52ZM254.704 50.336C254.8 50.336 254.912 50.32 254.992 50.304L254.88 51.968C254.608 52.096 254.272 52.144 253.856 52.144C252.928 52.144 252.192 51.808 251.888 51.104C251.408 51.808 250.544 52.16 249.328 52.16C247.52 52.16 246.48 51.168 246.48 49.664C246.48 48.112 247.68 47.184 249.456 47.184H251.536V46.896C251.536 46.128 251.152 45.744 250.288 45.744C249.536 45.744 248.944 45.984 248.816 46.72L246.512 46.304C246.8 44.72 248.24 43.84 250.48 43.84C252.576 43.84 254.08 44.864 254.08 46.704V49.712C254.08 50.128 254.288 50.336 254.704 50.336ZM249.968 50.416C250.672 50.416 251.536 50.064 251.536 49.056V48.704H250.112C249.424 48.704 248.928 48.944 248.928 49.536C248.928 50.064 249.216 50.416 249.968 50.416ZM261.094 43.84C262.806 43.84 264.006 44.816 264.006 46.768V52H261.446V47.392C261.446 46.4 260.934 46.064 260.214 46.064C259.398 46.064 258.662 46.544 258.662 47.76V52H256.102V44H258.406L258.47 45.376C258.998 44.368 259.894 43.84 261.094 43.84ZM269.545 55.312C266.985 55.312 265.625 54.272 265.273 52.912L268.041 52.448C268.233 53.04 268.649 53.392 269.673 53.392C270.729 53.392 271.321 52.768 271.321 51.536V50.768C270.825 51.52 270.025 52 268.953 52C267.017 52 265.545 50.496 265.545 47.92C265.545 45.344 267.033 43.84 269.113 43.84C270.265 43.84 271.065 44.336 271.497 45.216L271.561 44H273.881V50.8C273.881 53.648 272.409 55.312 269.545 55.312ZM269.721 49.856C270.713 49.856 271.321 49.152 271.321 47.872C271.321 46.64 270.713 45.968 269.737 45.968C268.713 45.968 268.121 46.56 268.121 47.952C268.121 49.28 268.697 49.856 269.721 49.856ZM283.514 47.632C283.514 48.032 283.498 48.384 283.466 48.672H277.978C278.106 49.616 278.714 50.16 279.738 50.16C280.634 50.16 281.034 49.68 281.29 49.136L283.418 49.984C282.922 51.392 281.37 52.16 279.642 52.16C277.098 52.16 275.466 50.64 275.466 48.064C275.466 45.376 277.146 43.84 279.594 43.84C282.09 43.84 283.514 45.52 283.514 47.632ZM277.994 47.184H281.018C280.986 46.304 280.458 45.792 279.578 45.792C278.73 45.792 278.122 46.208 277.994 47.184ZM287.678 52H285.118V44H287.422L287.486 45.36C288.062 44.32 288.974 43.84 290.174 43.84C291.326 43.84 292.286 44.384 292.702 45.392C293.23 44.336 294.27 43.84 295.422 43.84C296.99 43.84 298.19 44.8 298.19 46.64V52H295.63V47.344C295.63 46.4 295.15 46.064 294.462 46.064C293.598 46.064 292.926 46.624 292.926 47.76V52H290.366V47.344C290.366 46.4 289.902 46.064 289.198 46.064C288.43 46.064 287.678 46.56 287.678 47.776V52ZM307.764 47.632C307.764 48.032 307.748 48.384 307.716 48.672H302.228C302.356 49.616 302.964 50.16 303.988 50.16C304.884 50.16 305.284 49.68 305.54 49.136L307.668 49.984C307.172 51.392 305.62 52.16 303.892 52.16C301.348 52.16 299.716 50.64 299.716 48.064C299.716 45.376 301.396 43.84 303.844 43.84C306.34 43.84 307.764 45.52 307.764 47.632ZM302.244 47.184H305.268C305.236 46.304 304.708 45.792 303.828 45.792C302.98 45.792 302.372 46.208 302.244 47.184ZM314.36 43.84C316.072 43.84 317.272 44.816 317.272 46.768V52H314.712V47.392C314.712 46.4 314.2 46.064 313.48 46.064C312.664 46.064 311.928 46.544 311.928 47.76V52H309.368V44H311.672L311.736 45.376C312.264 44.368 313.16 43.84 314.36 43.84ZM324.748 49.776L325.1 51.664C324.556 51.936 323.772 52.16 322.924 52.16C321.132 52.16 319.948 51.424 319.948 49.392V46.048H318.348V44H319.948V41.6H322.412V44H324.796V46.048H322.412V48.96C322.412 49.712 322.78 50.016 323.452 50.016C323.948 50.016 324.412 49.904 324.748 49.776ZM329.441 52.16C327.809 52.16 326.529 51.776 325.473 51.056L326.513 49.104C327.281 49.664 328.321 50.224 329.553 50.224C330.113 50.224 330.529 50.016 330.529 49.648C330.529 49.408 330.369 49.264 329.729 49.152L328.433 48.912C326.449 48.544 325.729 47.776 325.729 46.464C325.729 45.072 326.977 43.84 329.409 43.84C330.865 43.84 332.081 44.192 333.041 44.848L332.017 46.736C331.265 46.176 330.257 45.776 329.424 45.776C328.577 45.776 328.257 46 328.257 46.32C328.257 46.576 328.401 46.736 329.041 46.864L330.801 47.2C332.417 47.504 333.057 48.288 333.057 49.408C333.057 51.024 331.873 52.16 329.441 52.16Z" fill="#083430"/>
<line x1="25" y1="109" x2="408" y2="109" stroke="#D3F6CD" stroke-width="2" stroke-linecap="round"/>
<rect x="354" y="96" width="55" height="28" rx="14" fill="#B5E0AA"/>
<path d="M367.675 115H365.421V108.084C365.099 108.77 364.189 109.372 363.167 109.54L362.901 107.258C364.175 107.034 365.407 106.236 365.925 105.144H367.675V115ZM373.438 115.154C370.834 115.154 369.42 113.39 369.42 110.072C369.42 106.754 370.834 104.99 373.438 104.99C376.042 104.99 377.442 106.754 377.442 110.072C377.442 113.39 376.042 115.154 373.438 115.154ZM373.438 113.208C374.6 113.208 375.146 112.228 375.146 110.072C375.146 107.888 374.586 106.922 373.438 106.922C372.262 106.922 371.73 107.916 371.73 110.072C371.73 112.256 372.276 113.208 373.438 113.208ZM382.831 115.154C380.227 115.154 378.813 113.39 378.813 110.072C378.813 106.754 380.227 104.99 382.831 104.99C385.435 104.99 386.835 106.754 386.835 110.072C386.835 113.39 385.435 115.154 382.831 115.154ZM382.831 113.208C383.993 113.208 384.539 112.228 384.539 110.072C384.539 107.888 383.979 106.922 382.831 106.922C381.655 106.922 381.123 107.916 381.123 110.072C381.123 112.256 381.669 113.208 382.831 113.208ZM390.53 104.962C392.168 104.962 393.218 106.096 393.218 107.762C393.218 109.428 392.168 110.562 390.53 110.562C388.892 110.562 387.842 109.428 387.842 107.762C387.842 106.096 388.892 104.962 390.53 104.962ZM391.524 115H389.55L396.998 105.144H398.972L391.524 115ZM390.53 106.558C389.9 106.558 389.564 107.006 389.564 107.762C389.564 108.518 389.9 108.966 390.53 108.966C391.16 108.966 391.496 108.518 391.496 107.762C391.496 107.006 391.16 106.558 390.53 106.558ZM397.992 115.168C396.354 115.168 395.304 114.034 395.304 112.368C395.304 110.702 396.354 109.568 397.992 109.568C399.63 109.568 400.68 110.702 400.68 112.368C400.68 114.034 399.63 115.168 397.992 115.168ZM397.992 113.572C398.622 113.572 398.958 113.124 398.958 112.368C398.958 111.612 398.622 111.164 397.992 111.164C397.362 111.164 397.026 111.612 397.026 112.368C397.026 113.124 397.362 113.572 397.992 113.572Z" fill="#083430"/>
<path d="M29.698 160H24.33V159.252L26.673 157.228C27.949 156.128 28.389 155.435 28.389 154.511C28.389 153.62 27.806 152.993 26.827 152.993C25.661 152.993 25.001 153.686 25.166 155.061L24.264 154.797C24.088 153.224 25.122 152.135 26.915 152.135C28.488 152.135 29.346 153.103 29.346 154.5C29.346 155.644 28.631 156.557 27.762 157.338L25.749 159.164H29.698V160ZM35.7244 160H30.3564V159.252L32.6994 157.228C33.9754 156.128 34.4154 155.435 34.4154 154.511C34.4154 153.62 33.8324 152.993 32.8534 152.993C31.6874 152.993 31.0274 153.686 31.1924 155.061L30.2904 154.797C30.1144 153.224 31.1484 152.135 32.9414 152.135C34.5144 152.135 35.3724 153.103 35.3724 154.5C35.3724 155.644 34.6574 156.557 33.7884 157.338L31.7754 159.164H35.7244V160ZM46.7753 161.067L47.1493 161.815C46.7423 162.134 46.1373 162.376 45.4113 162.376C44.1903 162.376 43.0683 161.793 42.9803 160.088C41.0553 159.868 39.8893 158.372 39.8893 156.128C39.8893 153.686 41.2753 152.135 43.4973 152.135C45.6863 152.135 47.0613 153.675 47.0613 156.128C47.0613 158.449 45.8293 159.956 43.8383 160.11C43.9483 161.232 44.6853 161.518 45.4113 161.518C46.1043 161.518 46.4893 161.265 46.7753 161.067ZM40.8353 156.128C40.8353 158.086 41.8583 159.263 43.4973 159.263C45.0923 159.263 46.1153 158.086 46.1153 156.128C46.1153 154.17 45.0923 152.993 43.4973 152.993C41.8583 152.993 40.8353 154.17 40.8353 156.128ZM53.5848 152.256H54.4868V157.118C54.4868 159.098 53.4088 160.121 51.4508 160.121C49.5148 160.121 48.4148 159.098 48.4148 157.118V152.256H49.3278V156.909C49.3278 158.196 49.7568 159.263 51.4508 159.263C53.1558 159.263 53.5848 158.196 53.5848 156.909V152.256ZM61.8915 160H56.2815V152.256H61.7265V153.103H57.1945V155.655H60.7255V156.491H57.1945V159.153H61.8915V160ZM65.697 152.135C67.039 152.135 68.04 152.663 68.744 153.697L67.941 154.313C67.347 153.367 66.665 152.993 65.609 152.993C64.366 152.993 63.772 153.543 63.772 154.269C63.772 154.929 64.168 155.38 65.114 155.567L66.753 155.897C68.062 156.161 68.755 156.766 68.755 157.877C68.755 159.219 67.754 160.121 65.972 160.121C64.531 160.121 63.387 159.648 62.529 158.383L63.365 157.69C63.948 158.779 64.927 159.263 66.016 159.263C67.215 159.263 67.798 158.801 67.798 157.965C67.798 157.437 67.512 156.997 66.588 156.81L64.817 156.447C63.398 156.161 62.815 155.358 62.815 154.368C62.815 153.136 63.915 152.135 65.697 152.135ZM69.1965 152.256H75.5435V153.092H72.8155V160H71.9135V153.092H69.1965V152.256ZM76.6916 152.256H77.6046V160H76.6916V152.256ZM82.7063 152.135C84.8953 152.135 86.2703 153.675 86.2703 156.128C86.2703 158.581 84.8953 160.121 82.7063 160.121C80.4843 160.121 79.0983 158.57 79.0983 156.128C79.0983 153.686 80.4843 152.135 82.7063 152.135ZM82.7063 152.993C81.0673 152.993 80.0443 154.17 80.0443 156.128C80.0443 158.086 81.0673 159.263 82.7063 159.263C84.3013 159.263 85.3243 158.086 85.3243 156.128C85.3243 154.17 84.3013 152.993 82.7063 152.993ZM88.6578 160H87.7668V152.256H89.0978L92.9588 158.944V152.256H93.8498V160H92.5298L88.6578 153.312V160ZM98.2995 152.135C99.6415 152.135 100.643 152.663 101.347 153.697L100.544 154.313C99.9495 153.367 99.2675 152.993 98.2115 152.993C96.9685 152.993 96.3745 153.543 96.3745 154.269C96.3745 154.929 96.7705 155.38 97.7165 155.567L99.3555 155.897C100.665 156.161 101.358 156.766 101.358 157.877C101.358 159.219 100.357 160.121 98.5745 160.121C97.1335 160.121 95.9895 159.648 95.1315 158.383L95.9675 157.69C96.5505 158.779 97.5295 159.263 98.6185 159.263C99.8175 159.263 100.401 158.801 100.401 157.965C100.401 157.437 100.115 156.997 99.1905 156.81L97.4195 156.447C96.0005 156.161 95.4175 155.358 95.4175 154.368C95.4175 153.136 96.5175 152.135 98.2995 152.135Z" fill="#083430"/>
<path d="M26.052 169.552V177.076H30.912V178H25.056V169.552H26.052ZM37.0164 177.268C37.1124 177.268 37.2444 177.268 37.3404 177.244L37.2924 177.988C37.1724 178.048 37.0044 178.084 36.7884 178.084C36.2244 178.084 35.7804 177.82 35.6244 177.292C35.2164 177.868 34.4604 178.12 33.7044 178.12C32.4324 178.12 31.6164 177.424 31.6164 176.248C31.6164 175.132 32.4444 174.412 33.8364 174.412H35.6004V174.028C35.6004 173.14 34.9524 172.72 34.1484 172.72C33.2004 172.72 32.7924 173.092 32.4684 173.788L31.5924 173.416C31.9764 172.48 32.7804 171.88 34.1124 171.88C35.4084 171.88 36.5604 172.432 36.5604 173.836V176.836C36.5604 177.124 36.7164 177.268 37.0164 177.268ZM33.9204 177.28C34.6764 177.28 35.6004 176.932 35.6004 175.864V175.192H33.9924C33.0084 175.192 32.6004 175.588 32.6004 176.2C32.6004 176.8 32.9724 177.28 33.9204 177.28ZM40.4774 178.12C39.2654 178.12 38.3294 177.676 37.6934 176.692L38.4734 176.104C38.9654 176.812 39.6134 177.28 40.5614 177.28C41.3654 177.28 41.8454 176.92 41.8454 176.392C41.8454 176.056 41.6774 175.744 41.0654 175.624L39.6494 175.336C38.4854 175.096 38.0174 174.508 38.0174 173.728C38.0174 172.708 38.9174 171.88 40.3094 171.88C41.4854 171.88 42.2534 172.336 42.7334 173.176L41.9294 173.704C41.5934 173.02 40.9574 172.72 40.3094 172.72C39.4694 172.72 38.9654 173.068 38.9654 173.644C38.9654 173.992 39.1574 174.328 39.8174 174.46L41.2934 174.76C42.4094 174.988 42.8054 175.516 42.8054 176.248C42.8054 177.388 41.8934 178.12 40.4774 178.12ZM47.445 176.824L47.805 177.604C47.421 177.916 46.893 178.12 46.305 178.12C45.309 178.12 44.517 177.628 44.517 176.428V172.828H43.209V172H44.517V170.2H45.477V172H47.589V172.828H45.477V176.296C45.477 176.86 45.741 177.22 46.365 177.22C46.833 177.22 47.133 177.076 47.445 176.824ZM57.399 174.568C57.399 174.844 57.375 175.072 57.351 175.24H52.803C52.875 176.488 53.595 177.28 54.759 177.28C55.635 177.28 56.163 176.92 56.499 176.344L57.255 176.788C56.799 177.604 55.947 178.12 54.783 178.12C53.055 178.12 51.831 176.944 51.831 175C51.831 173.056 53.043 171.88 54.723 171.88C56.403 171.88 57.399 173.032 57.399 174.568ZM52.839 174.388H56.379C56.343 173.296 55.695 172.72 54.699 172.72C53.703 172.72 53.019 173.332 52.839 174.388ZM63.0406 172.972V169.552H64.0006V178H63.1606L63.1006 176.872C62.7646 177.676 61.9006 178.12 61.0006 178.12C59.4646 178.12 58.2886 176.956 58.2886 175C58.2886 173.008 59.5846 171.88 61.0966 171.88C61.9606 171.88 62.7046 172.312 63.0406 172.972ZM61.1446 177.28C62.2846 177.28 63.0406 176.368 63.0406 174.916C63.0406 173.548 62.2846 172.72 61.1926 172.72C59.9806 172.72 59.2726 173.62 59.2726 175C59.2726 176.38 59.9566 177.28 61.1446 177.28ZM66.231 169.456C66.663 169.456 66.951 169.744 66.951 170.176C66.951 170.608 66.663 170.896 66.231 170.896C65.799 170.896 65.511 170.608 65.511 170.176C65.511 169.744 65.799 169.456 66.231 169.456ZM65.751 172H66.711V178H65.751V172ZM71.902 176.824L72.262 177.604C71.878 177.916 71.35 178.12 70.762 178.12C69.766 178.12 68.974 177.628 68.974 176.428V172.828H67.666V172H68.974V170.2H69.934V172H72.046V172.828H69.934V176.296C69.934 176.86 70.198 177.22 70.822 177.22C71.29 177.22 71.59 177.076 71.902 176.824ZM73.7587 171.88C74.2027 171.88 74.5387 172.216 74.5387 172.66C74.5387 173.104 74.2027 173.44 73.7587 173.44C73.3147 173.44 72.9787 173.104 72.9787 172.66C72.9787 172.216 73.3147 171.88 73.7587 171.88ZM73.7587 176.56C74.2027 176.56 74.5387 176.896 74.5387 177.34C74.5387 177.784 74.2027 178.12 73.7587 178.12C73.3147 178.12 72.9787 177.784 72.9787 177.34C72.9787 176.896 73.3147 176.56 73.7587 176.56ZM85.1183 178H79.2623V177.184L81.8183 174.976C83.2103 173.776 83.6903 173.02 83.6903 172.012C83.6903 171.04 83.0543 170.356 81.9863 170.356C80.7143 170.356 79.9943 171.112 80.1743 172.612L79.1903 172.324C78.9983 170.608 80.1263 169.42 82.0823 169.42C83.7983 169.42 84.7343 170.476 84.7343 172C84.7343 173.248 83.9543 174.244 83.0063 175.096L80.8103 177.088H85.1183V178ZM88.7166 178H87.7326V171.208C87.5286 171.676 86.7366 172.312 85.6806 172.48L85.4766 171.496C86.5806 171.28 87.3966 170.716 87.8526 169.552H88.7166V178ZM100.464 169.552V170.476H95.5442V173.272H99.3962V174.184H95.5442V178H94.5482V169.552H100.464ZM106.09 174.568C106.09 174.844 106.066 175.072 106.042 175.24H101.494C101.566 176.488 102.286 177.28 103.45 177.28C104.326 177.28 104.854 176.92 105.19 176.344L105.946 176.788C105.49 177.604 104.638 178.12 103.474 178.12C101.746 178.12 100.522 176.944 100.522 175C100.522 173.056 101.734 171.88 103.414 171.88C105.094 171.88 106.09 173.032 106.09 174.568ZM101.53 174.388H105.07C105.034 173.296 104.386 172.72 103.39 172.72C102.394 172.72 101.71 173.332 101.53 174.388ZM110.436 171.88C111.936 171.88 113.088 173.044 113.088 175C113.088 176.956 111.852 178.12 110.352 178.12C109.44 178.12 108.648 177.64 108.276 176.944L108.216 178H107.376V169.552H108.336V172.948C108.732 172.312 109.56 171.88 110.436 171.88ZM110.22 177.28C111.408 177.28 112.104 176.38 112.104 175C112.104 173.62 111.42 172.72 110.232 172.72C109.104 172.72 108.336 173.644 108.336 175.024C108.336 176.404 109.092 177.28 110.22 177.28ZM123.392 178H117.536V177.184L120.092 174.976C121.484 173.776 121.964 173.02 121.964 172.012C121.964 171.04 121.328 170.356 120.26 170.356C118.988 170.356 118.268 171.112 118.448 172.612L117.464 172.324C117.272 170.608 118.4 169.42 120.356 169.42C122.072 169.42 123.008 170.476 123.008 172C123.008 173.248 122.228 174.244 121.28 175.096L119.084 177.088H123.392V178ZM127.254 178.132C125.322 178.132 124.11 176.584 124.11 173.776C124.11 170.968 125.322 169.42 127.254 169.42C129.186 169.42 130.398 170.968 130.398 173.776C130.398 176.584 129.186 178.132 127.254 178.132ZM127.254 177.196C128.634 177.196 129.378 175.984 129.378 173.776C129.378 171.568 128.634 170.356 127.254 170.356C125.874 170.356 125.13 171.568 125.13 173.776C125.13 175.984 125.874 177.196 127.254 177.196ZM137.337 178H131.481V177.184L134.037 174.976C135.429 173.776 135.909 173.02 135.909 172.012C135.909 171.04 135.273 170.356 134.205 170.356C132.933 170.356 132.213 171.112 132.393 172.612L131.409 172.324C131.217 170.608 132.345 169.42 134.301 169.42C136.017 169.42 136.953 170.476 136.953 172C136.953 173.248 136.173 174.244 135.225 175.096L133.029 177.088H137.337V178ZM141.331 178.144C139.171 178.144 138.055 176.332 138.055 173.776C138.055 170.944 139.315 169.42 141.451 169.42C142.579 169.42 143.563 169.888 144.079 171.16L143.131 171.652C142.879 170.872 142.267 170.356 141.391 170.356C139.675 170.356 139.015 171.964 139.015 173.944C139.015 174.016 139.015 174.1 139.027 174.268C139.351 173.272 140.311 172.624 141.511 172.624C142.867 172.624 144.187 173.584 144.187 175.324C144.187 177.064 142.999 178.144 141.331 178.144ZM141.331 177.208C142.459 177.208 143.167 176.416 143.167 175.312C143.167 174.208 142.315 173.524 141.367 173.524C140.143 173.524 139.459 174.304 139.459 175.36C139.459 176.344 140.107 177.208 141.331 177.208Z" fill="#083430"/>
<rect x="289" y="149" width="119" height="34" rx="7" stroke="#083430" stroke-width="2"/>
<path d="M312.862 170H305.078V160.144H312.652V162.132H307.318V164.106H311.56V166.01H307.318V168.012H312.862V170ZM318.746 163.938V160.144H320.986V170H318.984L318.914 168.852C318.48 169.636 317.724 170.14 316.716 170.14C314.896 170.14 313.692 168.698 313.692 166.528C313.692 164.302 314.896 162.86 316.785 162.86C317.752 162.86 318.368 163.28 318.746 163.938ZM317.346 168.264C318.2 168.264 318.746 167.648 318.746 166.458C318.746 165.352 318.228 164.722 317.374 164.722C316.464 164.722 315.946 165.296 315.946 166.5C315.946 167.704 316.45 168.264 317.346 168.264ZM323.899 160.032C324.669 160.032 325.173 160.508 325.173 161.236C325.173 161.978 324.669 162.468 323.899 162.468C323.143 162.468 322.653 161.978 322.653 161.236C322.653 160.508 323.143 160.032 323.899 160.032ZM322.779 163H325.019V170H322.779V163ZM331.67 168.054L331.978 169.706C331.502 169.944 330.816 170.14 330.074 170.14C328.506 170.14 327.47 169.496 327.47 167.718V164.792H326.07V163H327.47V160.9H329.626V163H331.712V164.792H329.626V167.34C329.626 167.998 329.948 168.264 330.536 168.264C330.97 168.264 331.376 168.166 331.67 168.054ZM343.786 168.544C343.87 168.544 343.968 168.53 344.038 168.516L343.94 169.972C343.702 170.084 343.408 170.126 343.044 170.126C342.232 170.126 341.588 169.832 341.322 169.216C340.902 169.832 340.146 170.14 339.082 170.14C337.5 170.14 336.59 169.272 336.59 167.956C336.59 166.598 337.64 165.786 339.194 165.786H341.014V165.534C341.014 164.862 340.678 164.526 339.922 164.526C339.264 164.526 338.746 164.736 338.634 165.38L336.618 165.016C336.87 163.63 338.13 162.86 340.09 162.86C341.924 162.86 343.24 163.756 343.24 165.366V167.998C343.24 168.362 343.422 168.544 343.786 168.544ZM339.642 168.614C340.258 168.614 341.014 168.306 341.014 167.424V167.116H339.768C339.166 167.116 338.732 167.326 338.732 167.844C338.732 168.306 338.984 168.614 339.642 168.614ZM349.377 162.86C350.875 162.86 351.925 163.714 351.925 165.422V170H349.685V165.968C349.685 165.1 349.237 164.806 348.607 164.806C347.893 164.806 347.249 165.226 347.249 166.29V170H345.009V163H347.025L347.081 164.204C347.543 163.322 348.327 162.86 349.377 162.86ZM356.38 170.14C354.952 170.14 353.832 169.804 352.908 169.174L353.818 167.466C354.49 167.956 355.4 168.446 356.478 168.446C356.968 168.446 357.332 168.264 357.332 167.942C357.332 167.732 357.192 167.606 356.632 167.508L355.498 167.298C353.762 166.976 353.132 166.304 353.132 165.156C353.132 163.938 354.224 162.86 356.352 162.86C357.626 162.86 358.69 163.168 359.53 163.742L358.634 165.394C357.976 164.904 357.094 164.554 356.366 164.554C355.624 164.554 355.344 164.75 355.344 165.03C355.344 165.254 355.47 165.394 356.03 165.506L357.57 165.8C358.984 166.066 359.544 166.752 359.544 167.732C359.544 169.146 358.508 170.14 356.38 170.14ZM368.601 167.83L369.903 163H372.129L369.987 170H367.341L366.025 165.492L364.681 170H362.035L359.893 163H362.259L363.519 167.83L364.933 163H367.271L368.601 167.83ZM379.577 166.178C379.577 166.528 379.563 166.836 379.535 167.088H374.733C374.845 167.914 375.377 168.39 376.273 168.39C377.057 168.39 377.407 167.97 377.631 167.494L379.493 168.236C379.059 169.468 377.701 170.14 376.189 170.14C373.963 170.14 372.535 168.81 372.535 166.556C372.535 164.204 374.005 162.86 376.147 162.86C378.331 162.86 379.577 164.33 379.577 166.178ZM374.747 165.786H377.393C377.365 165.016 376.903 164.568 376.133 164.568C375.391 164.568 374.859 164.932 374.747 165.786ZM383.22 170H380.98V163H382.996L383.066 164.372C383.388 163.504 384.088 162.86 385.222 162.86C385.446 162.86 385.684 162.902 385.852 162.972L385.614 165.156C385.432 165.1 385.194 165.044 384.816 165.044C383.976 165.044 383.22 165.576 383.22 166.598V170ZM389.589 170.14C388.161 170.14 387.041 169.804 386.117 169.174L387.027 167.466C387.699 167.956 388.609 168.446 389.687 168.446C390.177 168.446 390.541 168.264 390.541 167.942C390.541 167.732 390.401 167.606 389.841 167.508L388.707 167.298C386.971 166.976 386.341 166.304 386.341 165.156C386.341 163.938 387.433 162.86 389.561 162.86C390.835 162.86 391.899 163.168 392.739 163.742L391.843 165.394C391.185 164.904 390.303 164.554 389.575 164.554C388.833 164.554 388.553 164.75 388.553 165.03C388.553 165.254 388.679 165.394 389.239 165.506L390.779 165.8C392.193 166.066 392.753 166.752 392.753 167.732C392.753 169.146 391.717 170.14 389.589 170.14Z" fill="#083430"/>
</svg>
